<?xml version="1.0" encoding="UTF-8" standalone="no"?>
<!-- Created with Inkscape (http://www.inkscape.org/) -->

<svg
   xmlns:dc="http://purl.org/dc/elements/1.1/"
   xmlns:cc="http://creativecommons.org/ns#"
   xmlns:rdf="http://www.w3.org/1999/02/22-rdf-syntax-ns#"
   xmlns:svg="http://www.w3.org/2000/svg"
   xmlns="http://www.w3.org/2000/svg"
   xmlns:xlink="http://www.w3.org/1999/xlink"
   version="1.2"
   width="1480.3199"
   height="1981.16"
   viewBox="0 0 1480.3199 1981.1601"
   id="Livello_1"
   xml:space="preserve"><metadata
   id="metadata308"><rdf:RDF><cc:Work
       rdf:about=""><dc:format>image/svg+xml</dc:format><dc:type
         rdf:resource="http://purl.org/dc/dcmitype/StillImage" /><dc:title></dc:title></cc:Work></rdf:RDF></metadata><defs
   id="defs306"><linearGradient
     id="linearGradient4098"><stop
       id="stop4100"
       style="stop-color:#e3bf69;stop-opacity:1"
       offset="0" /><stop
       id="stop4102"
       style="stop-color:#e3bf69;stop-opacity:0"
       offset="1" /></linearGradient><linearGradient
     x1="786.36548"
     y1="878.35388"
     x2="117.13603"
     y2="1962.318"
     id="linearGradient4104"
     xlink:href="#linearGradient4098"
     gradientUnits="userSpaceOnUse"
     spreadMethod="reflect" /></defs>




















<g
   id="layer3"
   style="display:inline"><path
     d="m 733.625,101.59375 c -134.91353,1.32899 -270.36767,7.27189 -403.48312,29.59773 -58.59076,10.52012 -117.77384,24.13192 -169.95438,53.52727 -15.64297,9.18735 -29.36354,23.51284 -31.71875,42.125 -20.58608,89.46554 -33.090935,180.78652 -44.005233,271.87391 -13.34842,108.80552 -12.264336,218.64197 -13.078319,328.06341 -0.329669,98.32959 0.668308,196.92703 12.501165,294.67313 8.61048,79.6215 18.887137,159.3114 35.009457,237.7667 5.70735,25.7719 16.9406,50.157 32.79168,71.3729 30.99379,43.6434 70.94003,79.5659 109.03125,116.8437 132.03857,124.8752 281.44471,232.0489 443.67845,314.177 11.31819,5.9005 22.7043,11.6926 34.1028,17.448 177.42743,-83.2892 338.4665,-199.1758 481.3701,-332.8889 37.4406,-35.3337 75.0929,-70.9794 105.5987,-112.7986 19.5673,-27.2021 33.6436,-58.3284 38.8194,-91.4392 13.5371,-70.8054 22.36,-142.3603 30.426,-213.9392 7.6298,-67.5548 10.9184,-135.4919 12.4737,-203.43158 2.1506,-87.96489 2.8455,-176.01564 -0.028,-263.96922 -4.6418,-100.7071 -15.8393,-200.99504 -30.8791,-300.61463 -7.8098,-48.48021 -16.0543,-97.02507 -28.7983,-144.42503 -5.2539,-14.6998 -17.2085,-25.94315 -31.2967,-32.0052 -65.715,-35.59894 -140.3751,-49.14206 -213.7115,-59.71216 -105.27019,-14.18712 -211.66808,-19.51711 -317.8493,-21.93253 -16.99871,-0.22336 -33.99962,-0.41372 -51,-0.3125 z"
     id="path3784"
     style="fill:#8c680e;fill-opacity:1;stroke:#8c680e;stroke-width:10;stroke-opacity:1;display:inline" /><path
     d="m 706.46875,148.15625 c -149.33498,2.86177 -300.1844,8.96483 -445.56057,45.72231 -29.01922,8.17056 -59.13106,16.93588 -82.97068,36.21519 -5.73161,5.04244 -5.67773,13.81154 -8.15625,20.65625 -5.42483,24.08411 -7.41303,49.0264 -13.79514,72.93233 -34.25667,182.96303 -41.61453,369.82719 -38.60256,555.63013 1.29405,156.60024 14.25555,313.63804 46.90317,466.88764 4.50578,21.1722 12.52184,41.4876 25.65078,58.8624 25.85605,36.6866 59.73284,66.1791 91.18891,98.1234 135.26807,130.2263 289.99512,240.7476 458.06109,324.8141 200.86992,-99.9527 382.5463,-238.0732 534.875,-402.625 28.5066,-33.5264 46.3016,-75.6483 50.1471,-119.4718 38.3727,-225.1478 45.5672,-454.78704 34.1782,-682.64616 -7.7284,-130.73791 -23.7674,-261.40855 -54.2003,-388.78829 -2.319,-7.8452 -9.8871,-11.8629 -17.0614,-14.42504 -82.135,-38.8367 -173.7362,-50.05717 -263.3625,-58.54778 C 918.36137,151.3966 812.35662,146.38983 706.46875,148.15625 z"
     id="path3906"
     style="fill:url(#linearGradient4104);fill-opacity:1;stroke:#8c680e;stroke-width:10;stroke-opacity:1;display:inline" /><path
     d="m 738.82473,180.20149 c 54.93039,-0.57335 111.87208,32.77926 130.4375,79.28125 4.1918,10.49948 6.90395,12.39462 15.34375,10.78125 7.0197,-1.34191 13.5301,1.11825 20.6875,7.8125 19.566,18.29976 19.54005,21.10161 -0.15625,62.125 -53.69711,111.84019 -90.26942,255.28277 -95.65625,375.15625 -2.51919,56.05898 4.94969,116.26098 22.15625,178.65625 6.93888,25.16211 8.10895,26.77336 22.28125,30.125 8.23109,1.94664 18.52921,7.55067 22.875,12.46877 4.34583,4.9181 20.42838,41.1015 35.75,80.40634 l 27.875,71.4687 -7.90625,10.75 c -10.22521,13.9292 -49.30049,27.1096 -97.71875,32.9687 -34.22152,4.1412 -149.62813,5.1854 -182.9062,1.6563 -25.5493,-2.7096 -73.2776,-13.169 -87.9063,-19.2813 -7.8306,-3.2717 -17.2205,-10.5163 -20.875,-16.0937 -6.3795,-9.7363 -5.5832,-12.9578 20.0937,-80.5313 32.077,-84.41584 32.9002,-86.04124 45.0626,-89.09376 7.9368,-1.99207 11.824,-9.27016 22.5,-42.1875 61.8293,-190.63759 41.15791,-388.44025 -57.5626,-550.9375 -8.7291,-14.3685 -15.875,-29.28854 -15.875,-33.15625 0,-11.7565 22.682,-30.46142 34.25,-28.25 8.3297,1.59232 11.2745,-0.61542 17.0313,-12.6875 20.0219,-41.98631 60.33388,-71.12204 110.15625,-79.65625 6.61075,-1.13237 13.31666,-1.71084 20.0625,-1.78125 z"
     id="path4088"
     style="fill:#ffffff;fill-opacity:1;display:inline" /><g
     transform="matrix(0.2684301,0,0,0.2684301,555.9139,692.73699)"
     id="g3796"
     style="fill:#8c680e;fill-opacity:1;display:inline"><path
       d="m 615.65574,1265.2483 -71.91105,0 0,32.4751 62.28779,0.138 -17.79142,45.8064 -43.49849,-0.026 -0.99788,65.4458 -58.42857,0 0,-180.9535 138.1353,1.091 7.59978,0 z"
       id="path3798"
       style="fill:#8c680e;fill-opacity:1;fill-rule:evenodd" /><path
       d="m 703.63908,1409.1134 -57.4671,-0.074 -0.89578,-180.0955 0,0 59.144,0.2115 z"
       id="path3800"
       style="fill:#8c680e;fill-opacity:1;fill-rule:evenodd" /><path
       d="m 979.71377,1229.1632 67.41583,179.9203 -58.42858,0.082 -8.98725,-22.4999 -55.89966,-0.6307 -11.52016,23.1306 -58.4287,0 67.41996,-180.0041 58.42856,0 z m -49.44132,121.5024 40.45006,0 -22.47155,-67.5042 z"
       id="path3802"
       style="fill:#8c680e;fill-opacity:1;fill-rule:evenodd" /><path
       d="m 864.91562,1266.0426 -71.91105,0 0,32.3047 62.28779,0.1369 -17.79142,45.5665 -43.49849,-0.024 -0.99788,65.1029 -58.42857,0 0,-180.0052 137.50304,-0.1792 7.59978,0.3161 z"
       id="path3804"
       style="fill:#8c680e;fill-opacity:1;fill-rule:evenodd" /></g><path
     d="m 743.8177,171.625 c -26.82247,0 -63.92495,11.06619 -87.7188,26.125 -15.9255,10.07907 -54.375,55.88603 -54.375,64.78125 0,2.01218 -4.8092,3.65625 -10.6874,3.65625 -13.7863,0 -38.6563,24.34455 -38.6563,37.84375 0,5.43571 5.6368,18.74037 12.5,29.5625 34.6124,54.57813 66.2857,131.49382 83.0625,201.625 7.7546,32.41612 8.9405,49.38584 9.0938,131.75 0.193,103.7233 -2.7427,125.85355 -27.5938,207.25 -11.4154,37.38974 -14.7385,43.76899 -26.0938,50.46875 -11.4998,6.7851 -16.3642,16.54269 -42.3124,84.625 -16.1325,42.3278 -29.3183,79.1287 -29.2813,81.7813 0.1451,10.5572 21.7873,29.8366 40.4375,36.0312 10.765,3.5756 36.1506,9.1899 56.4062,12.4688 50.79402,8.2221 204.94488,5.7819 248.5313,-3.9376 37.5748,-8.3788 61.87085,-21.0861 69.09375,-36.1562 5.01292,-10.4591 3.21272,-16.9981 -23.9375,-86.2812 -16.15277,-41.21942 -32.29841,-78.18019 -35.875,-82.1563 -3.57663,-3.97607 -13.58259,-9.34067 -22.25,-11.9375 -17.75743,-5.32024 -17.71956,-5.24719 -33.125,-75.375 C 819.32587,790.44176 818.53164,696.63261 829.2552,629.96875 844.53896,534.95593 877.61971,426.04319 914.4427,349.5 c 11.12793,-23.13141 20.23515,-44.41224 20.21875,-47.28125 -0.079,-15.20972 -26.83398,-41.16175 -42.5,-41.21875 -6.26677,-0.0228 -12.4533,-6.1201 -21.1875,-20.9375 C 847.97779,201.04998 793.32005,171.625 743.8177,171.625 z m -1.71875,9.53125 c 54.93039,-0.57335 111.87208,32.77926 130.4375,79.28125 4.1918,10.49948 6.90395,12.39462 15.34375,10.78125 7.0197,-1.34191 13.5301,1.11825 20.6875,7.8125 19.566,18.29976 19.54005,21.10161 -0.15625,62.125 -53.69711,111.84019 -90.26942,255.28277 -95.65625,375.15625 -2.51919,56.05898 4.94969,116.26098 22.15625,178.65625 6.93888,25.16211 8.10895,26.77336 22.28125,30.125 8.23109,1.94664 18.52921,7.55066 22.875,12.46875 4.34583,4.91813 20.42838,41.10151 35.75,80.4063 l 27.875,71.4687 -7.90625,10.75 c -10.22521,13.9292 -49.30049,27.1096 -97.71875,32.9687 -34.22152,4.1412 -149.62813,5.1854 -182.9062,1.6563 -25.5493,-2.7096 -73.2776,-13.169 -87.9063,-19.2813 -7.8306,-3.2717 -17.2205,-10.5163 -20.875,-16.0937 -6.3795,-9.7363 -5.5832,-12.9578 20.0937,-80.5313 32.077,-84.41581 32.9002,-86.04115 45.0626,-89.0937 7.9368,-1.99207 11.824,-9.27016 22.5,-42.1875 61.8293,-190.63759 41.15791,-388.44025 -57.5626,-550.9375 -8.7291,-14.3685 -15.875,-29.28854 -15.875,-33.15625 0,-11.7565 22.682,-30.46142 34.25,-28.25 8.3297,1.59232 11.2745,-0.61542 17.0313,-12.6875 20.0219,-41.98631 60.33388,-71.12204 110.15625,-79.65625 6.61075,-1.13237 13.31666,-1.71084 20.0625,-1.78125 z"
     id="path3756"
     style="fill:#8c680e;fill-opacity:1;display:inline" /><path
     d="m 601.7156,1099.5123 c -12.435,-2.3 -23.2636,-4.7156 -24.0637,-5.3678 -0.8,-0.6523 7.269,-27.3614 17.9312,-59.3535 17.844,-53.54147 20.0847,-57.97836 28.1744,-55.78873 39.28154,10.6323 102.55659,12.05967 232.58827,5.24682 l 14.15207,-0.7415 15.54639,53.43961 c 12.63675,43.4379 16.4282,57.3875 14.57593,61.7706 -0.69901,1.6541 -4.96391,2.222 -7.09835,2.222 -3.03347,0 -5.01701,-8.138 -7.78383,-17.7468 -2.76677,-9.6089 -9.45144,-32.2693 -14.8548,-50.3566 l -9.82429,-32.88586 -101.92419,0.93526 -101.9242,0.9352 -14.3428,51.4767 c -7.8886,28.3121 -15.2879,51.2336 -16.443,50.9366 -1.155,-0.2972 -12.2741,-2.4219 -24.7091,-4.722 z"
     id="path3752"
     style="fill:#8c680e;fill-opacity:1;display:inline" /><path
     d="m 782.55681,966.61206 c -0.0164,-2.01196 -1.83626,-19.36005 -4.04245,-38.55123 -14.95684,-130.10688 -13.07519,-317.32614 4.39873,-437.6634 9.49535,-65.39117 26.56831,-142.00972 33.82429,-151.79356 4.309,-5.81015 48.33235,-24.19427 51.16157,-21.36502 0.5949,0.59491 -5.45873,15.23748 -13.45255,32.53903 -16.29406,35.2663 -39.92709,104.69159 -37.80513,111.05756 0.76135,2.28396 5.55204,-6.81885 10.64603,-20.22844 5.09398,-13.4096 54.79622,-115.56976 60.43521,-125.74384 11.21589,-20.23621 -29.83727,63.14221 -50.45274,119.86108 -27.20358,74.84439 -46.46616,176.77619 -46.45531,245.82707 0.008,57.356 21.23187,215.84427 35.01682,261.49901 3.35514,11.11206 5.36681,20.93722 4.47034,21.83369 -3.60923,3.60922 -47.71578,6.12939 -47.74481,2.72805 z"
     id="path3740"
     style="fill:#8c680e;fill-opacity:1;display:inline" /><path
     d="m 714.33429,957.81549 c 3.94906,-13.01451 10.41583,-59.62422 17.2526,-124.34979 5.00601,-47.39354 7.12214,-116.89739 8.26028,-271.30862 l 1.53009,-207.5922 18.49651,-7.93241 c 10.17313,-4.36281 19.47811,-6.95084 20.67774,-5.75117 1.19968,1.19968 -0.57784,15.29749 -3.95008,31.32846 -14.08178,66.94249 -19.52411,145.63473 -21.38134,309.15869 -1.01429,89.30575 -0.35846,189.65915 1.45738,223.00755 l 3.30149,60.63344 -23.91375,-8e-5 c -20.86602,-8e-5 -23.63555,-0.9169 -21.73092,-7.19387 z"
     id="path3738"
     style="fill:#8c680e;fill-opacity:1;display:inline" /><path
     d="m 635.6297,957.51006 c -3.9356,-2.499 -2.2165,-11.2674 7.3469,-37.47154 42.71108,-117.03115 55.91974,-257.49116 35.00768,-372.26922 -12.6831,-69.61245 -44.63508,-152.82104 -83.40608,-217.20418 -13.5297,-22.46748 -14.0108,-24.43566 -7.5355,-30.83052 6.4507,-6.37062 7.2475,-6.29112 11.8226,1.17945 14.8,24.16681 23.404,42.02809 23.404,48.58529 0,9.55565 18.0064,45.10732 26.3558,52.03675 3.544,2.94119 12.16233,23.17317 19.15194,44.95991 44.82141,139.70889 46.60185,280.28486 5.4697,431.85837 -12.26113,45.18263 -25.72004,82.57069 -29.69144,82.48103 -1.5332,-0.0329 -5.0997,-1.53104 -7.9256,-3.32534 z"
     id="path3736"
     style="fill:#8c680e;fill-opacity:1;display:inline" /><path
     d="m 705.64411,429.32068 c -17.69976,-6.52094 -28.88002,-17.84964 -23.21074,-23.51892 3.01523,-3.01523 11.35254,-2.09446 27.65161,3.0537 18.97549,5.99354 23.12783,8.89851 22.22684,15.54993 -1.3461,9.93709 -9.13854,11.37338 -26.66771,4.91529 z"
     id="path3734"
     style="fill:#8c680e;fill-opacity:1;display:inline" /><path
     d="m 714.80962,402.17991 c -6.45386,-2.52013 -7.90248,-6.32794 -6.88779,-18.10529 0.76008,-8.82209 -1.35876,-18.68835 -5.18717,-24.15423 -6.38209,-9.11166 -6.47211,-9.12013 -6.47211,-0.60741 0,4.74803 -2.31229,10.54223 -5.13842,12.87602 -3.94577,3.25838 -5.15791,0.75136 -5.2224,-10.80116 -0.0678,-12.1878 2.77343,-17.59441 14.96447,-28.47397 13.34909,-11.91303 16.33541,-12.94023 26.44544,-9.0964 8.66202,3.29328 10.24996,5.48023 6.61693,9.11326 -2.8651,2.8651 -4.78013,18.44886 -4.78013,38.89924 0,18.76551 -1.38737,33.98909 -3.08305,33.83017 -1.69568,-0.15867 -6.76077,-1.72499 -11.25577,-3.48023 z"
     id="path3732"
     style="fill:#8c680e;fill-opacity:1;display:inline" /><path
     d="m 663.37666,400.26242 c 0,-0.86675 3.70221,-2.54406 8.22714,-3.72737 4.52494,-1.18328 7.1905,-0.47414 5.92349,1.57593 -2.2126,3.58008 -14.15063,5.3951 -14.15063,2.15144 z"
     id="path3730"
     style="fill:#8c680e;fill-opacity:1;display:inline" /><path
     d="m 647.5405,384.32192 c -13.3548,-21.6087 -17.2016,-34.87931 -13.0823,-45.13136 2.3723,-5.90392 3.9987,-7.0426 4.4622,-3.124 0.4012,3.39136 1.3456,11.42403 2.0988,17.85042 0.7533,6.42636 5.1372,18.91272 9.7422,27.74748 10.16604,19.504 8.1956,21.12976 -3.2209,2.65746 z"
     id="path3728"
     style="fill:#8c680e;fill-opacity:1;display:inline" /><path
     d="m 659.3142,378.20161 c -4.8257,-10.13568 -10.6172,-33.82634 -13.8177,-56.52263 -0.6377,-4.52181 -5.1997,-10.0475 -10.1379,-12.2793 -10.7363,-4.85223 -6.1505,-6.10269 -1.6492,-28.21695 3.9953,-19.62862 7.0343,-18.18388 24.5566,-17.13278 17.15349,1.02897 17.74727,-0.5808 17.44287,7.85237 -0.36414,10.08808 7.34893,21.2521 15.59046,23.67007 3.70599,1.08729 1.34976,7.54337 -7.78775,21.33847 -11.9969,18.11203 -12.71965,21.02333 -8.57327,34.53347 2.49045,8.11468 3.24851,16.761 1.68458,19.21408 -2.8071,4.40301 -3.50362,6.67855 -4.51092,14.73699 -0.96729,7.73851 -7.41363,4.11497 -12.79777,-7.19379 z"
     id="path3726"
     style="fill:#8c680e;fill-opacity:1;display:inline" /><path
     d="m 749.70212,336.06656 c 7.91317,-4.33226 19.01216,-7.89401 24.66442,-7.91497 6.6513,-0.0247 2.30066,2.76763 -12.33221,7.91497 -28.24347,9.93508 -30.47922,9.93508 -12.33221,0 z"
     id="path3724"
     style="fill:#8c680e;fill-opacity:1;display:inline" /><path
     d="m 626.38,323.97697 c 0,-2.39434 1.8499,-4.35335 4.1108,-4.35335 2.2609,0 4.1107,0.81573 4.1107,1.81275 0,0.99702 -1.8498,2.95603 -4.1107,4.35335 -2.2609,1.39732 -4.1108,0.58159 -4.1108,-1.81275 z"
     id="path3722"
     style="fill:#8c680e;fill-opacity:1;display:inline" /><path
     d="m 694.94983,316.63379 c 4.11336,-7.29664 8.15964,-11.26605 8.99182,-8.82094 0.83214,2.44515 -2.53336,8.41513 -7.47887,13.26666 l -8.99178,8.82095 7.47883,-13.26667 z"
     id="path3720"
     style="fill:#8c680e;fill-opacity:1;display:inline" /><path
     d="m 736.33561,316.05003 c -16.98244,-5.2996 -20.06311,-8.01355 -23.59591,-20.78693 -4.3185,-15.61414 -0.91892,-20.46796 23.60253,-33.69917 13.01599,-7.02312 27.72346,1.6633 40.90783,24.16068 9.81027,16.73997 10.01766,18.23537 3.52409,25.41066 -9.64387,10.65639 -21.74949,11.99521 -44.43854,4.91476 z"
     id="path3718"
     style="fill:#8c680e;fill-opacity:1;display:inline" /><path
     d="m 815.47391,320.12233 c 0,-3.24111 9.8679,-8.01306 29.40093,-14.21772 3.73555,-1.18661 7.93594,-1.01346 9.33416,0.38476 1.39823,1.39823 -6.28272,5.89385 -17.06876,9.99028 -22.85586,8.68036 -21.66633,8.4694 -21.66633,3.84268 z"
     id="path3716"
     style="fill:#8c680e;fill-opacity:1;display:inline" /><path
     d="m 883.9302,303.77409 c -7.07416,-2.8288 -7.12082,-3.42728 -0.68312,-8.77013 4.65566,-3.8638 8.91159,-4.47108 13.04818,-1.86175 13.6973,8.64003 3.84304,17.11304 -12.36506,10.63188 z"
     id="path3714"
     style="fill:#8c680e;fill-opacity:1;display:inline" /><path
     d="m 813.26327,297.01456 c -1.74229,-4.52181 -4.06806,-10.0713 -5.16838,-12.33221 -1.10032,-2.2609 1.24946,-1.05521 5.2217,2.67934 3.97229,3.73452 6.29806,9.28402 5.16843,12.33221 -1.44735,3.90541 -2.98945,3.11413 -5.22175,-2.67934 z"
     id="path3712"
     style="fill:#8c680e;fill-opacity:1;display:inline" /><path
     d="m 838.25852,291.13251 c -1.3008,-2.1047 -0.48502,-4.9886 1.81276,-6.40872 2.29778,-1.4201 4.17778,0.3019 4.17778,3.82668 0,7.22064 -2.46669,8.2838 -5.99054,2.58204 z"
     id="path3710"
     style="fill:#8c680e;fill-opacity:1;display:inline" /><path
     d="m 690.00128,269.995 c -3.83014,-12.06779 1.14681,-28.47538 8.63756,-28.47538 3.48171,0 5.29032,1.6829 4.01907,3.73977 -4.73039,7.65395 2.78079,17.52132 11.64218,15.29419 8.61055,-2.16409 8.61438,-2.1304 0.46077,4.08076 -17.61701,13.42009 -21.90681,14.34887 -24.75958,5.36066 z"
     id="path3708"
     style="fill:#8c680e;fill-opacity:1;display:inline" /><path
     d="m 776.88585,267.08121 c -6.01278,-11.62744 -18.46407,-18.09413 -37.46057,-19.45545 -4.52181,-0.32405 -12.73716,-0.90557 -18.25631,-1.29229 -9.60536,-0.67302 -9.69994,-0.94799 -2.21055,-6.42439 6.52287,-4.76962 6.94324,-6.78293 2.5272,-12.10391 -5.20206,-6.26807 -27.21747,-3.45861 -37.35537,2.8073 -2.37169,1.46578 -21.609,12.29941 -20.27692,9.80674 6.92415,-12.95692 36.03414,-33.80817 80.37087,-31.78533 40.02556,0.0321 86.62308,24.28833 81.04255,38.83101 -1.07003,2.78844 0.9134,7.44261 4.40765,10.34258 3.49425,2.89996 6.35319,7.68527 6.35319,10.63402 0,8.92388 -13.79724,9.17029 -23.63674,0.42213 l -9.24915,-8.22328 -9.95641,9.35356 -9.95641,9.35355 -6.34303,-12.26608 z"
     id="path3706"
     style="fill:#8c680e;fill-opacity:1;display:inline" /><path
     d="M 733.09375,53.9375 C 567.41478,55.677993 399.97316,61.727488 238.65995,102.60406 190.4553,115.31243 141.16084,133.12573 105,168.5625 81.490958,194.60684 78.139552,231.12618 71.546138,264.15396 41.220222,420.09881 23.960585,578.69656 23.669886,737.65573 c -0.640072,139.77853 -1.68393,280.07337 15.466688,419.05697 9.011164,77.2346 20.576248,154.3804 37.707176,230.2873 16.984807,57.0198 57.4261,102.8089 98.67662,144.1285 156.99892,158.8508 339.51757,293.3929 541.18246,390.1108 8.68421,5.2272 18.91277,8.3149 28.95342,5.8545 18.66418,-4.0876 34.61215,-16.0499 52.09375,-23.6563 206.3044,-104.2815 392.0593,-248.0734 548.5772,-417.9921 38.2576,-45.346 63.8735,-101.9253 69.8482,-161.2805 22.2597,-131.8551 36.3924,-265.1511 39.3635,-398.91073 3.1429,-112.73131 2.1975,-225.65039 -4.8201,-338.22292 -8.514,-117.75557 -24.0731,-235.09872 -49.1151,-350.50917 -5.9357,-26.87982 -12.3107,-56.26631 -33.8849,-75.14708 -27.212,-25.21973 -63.592,-36.7232 -97.7398,-49.63661 C 1177.9708,80.398284 1080.3718,72.120824 984.14074,63.228525 900.63678,56.621225 816.85537,53.632832 733.09375,53.9375 z"
     id="path3842"
     style="fill:none;stroke:#000000;stroke-width:2;display:inline" /><g
     transform="matrix(0.92439811,0,0,1,82.387175,21.996971)"
     id="g4874"
     style="fill:#8c680e;fill-opacity:1;stroke:#8c680e;stroke-width:16.64142418;stroke-opacity:1;display:inline"><path
       d="m 1086.305,1436.039 11.705,-1.209 c 0.703,4.166 2.136,7.229 4.289,9.184 2.157,1.955 5.062,2.931 8.722,2.931 3.875,0 6.793,-0.87 8.757,-2.609 1.969,-1.736 2.948,-3.771 2.948,-6.1 0,-1.493 -0.413,-2.768 -1.239,-3.813 -0.826,-1.05 -2.271,-1.964 -4.328,-2.737 -1.41,-0.519 -4.622,-1.437 -9.636,-2.76 -6.45,-1.695 -10.976,-3.783 -13.577,-6.252 -3.66,-3.48 -5.487,-7.721 -5.487,-12.721 0,-3.216 0.861,-6.23 2.579,-9.034 1.723,-2.799 4.2,-4.934 7.443,-6.401 3.238,-1.463 7.145,-2.197 11.728,-2.197 7.478,0 13.106,1.74 16.89,5.216 3.779,3.479 5.765,8.12 5.954,13.929 l -12.031,0.558 c -0.518,-3.247 -1.621,-5.584 -3.313,-7.004 -1.696,-1.423 -4.235,-2.135 -7.623,-2.135 -3.498,0 -6.235,0.76 -8.213,2.284 -1.274,0.976 -1.911,2.285 -1.911,3.924 0,1.494 0.598,2.772 1.788,3.836 1.521,1.354 5.207,2.76 11.06,4.228 5.853,1.463 10.181,2.983 12.988,4.547 2.804,1.569 5.001,3.709 6.587,6.424 1.582,2.716 2.377,6.073 2.377,10.066 0,3.621 -0.949,7.013 -2.848,10.177 -1.897,3.164 -4.578,5.51 -8.049,7.048 -3.467,1.538 -7.791,2.307 -12.967,2.307 -7.535,0 -13.322,-1.846 -17.36,-5.541 -4.038,-3.694 -6.451,-9.077 -7.233,-16.146 z m -56.954,20.563 v -63.206 h 11.71 l 24.391,42.207 v -42.207 h 11.178 v 63.206 h -12.074 l -24.021,-41.215 v 41.215 h -11.184 z m -67.318,-31.215 c 0,-6.437 0.909,-11.841 2.724,-16.209 1.358,-3.221 3.208,-6.107 5.55,-8.669 2.347,-2.558 4.912,-4.455 7.702,-5.69 3.713,-1.665 7.997,-2.5 12.848,-2.5 8.779,0 15.806,2.887 21.078,8.665 5.272,5.778 7.904,13.814 7.904,24.101 0,10.207 -2.614,18.187 -7.843,23.951 -5.233,5.765 -12.224,8.643 -20.977,8.643 -8.862,0 -15.91,-2.864 -21.14,-8.599 -5.228,-5.735 -7.846,-13.63 -7.846,-23.693 z m 12.399,-0.43 c 0,7.158 1.56,12.58 4.675,16.275 3.115,3.695 7.074,5.541 11.872,5.541 4.794,0 8.731,-1.832 11.807,-5.497 3.076,-3.664 4.613,-9.161 4.613,-16.49 0,-7.245 -1.493,-12.65 -4.49,-16.214 -2.996,-3.563 -6.973,-5.347 -11.93,-5.347 -4.96,0 -8.959,1.806 -11.995,5.413 -3.031,3.608 -4.552,9.047 -4.552,16.319 z m -33.455,31.645 v -63.206 h 12.034 v 63.206 h -12.034 z m -55.161,0 v -63.206 h 19.307 c 7.315,0 12.088,0.315 14.311,0.948 3.414,0.949 6.274,3.01 8.577,6.187 2.303,3.178 3.454,7.281 3.454,12.313 0,3.88 -0.664,7.14 -1.991,9.785 -1.326,2.645 -3.014,4.719 -5.062,6.23 -2.048,1.507 -4.126,2.509 -6.239,2.996 -2.874,0.603 -7.034,0.905 -12.479,0.905 h -7.848 v 23.842 h -12.03 z m 12.03,-52.512 v 17.936 h 6.587 c 4.74,0 7.913,-0.334 9.513,-0.993 1.599,-0.658 2.852,-1.695 3.761,-3.106 0.905,-1.405 1.357,-3.045 1.357,-4.912 0,-2.298 -0.637,-4.196 -1.906,-5.69 -1.274,-1.493 -2.887,-2.43 -4.838,-2.803 -1.437,-0.286 -4.323,-0.431 -8.66,-0.431 h -5.814 z m -81.547,52.512 v -63.206 h 18.007 l 10.813,43.112 10.69,-43.112 h 18.05 v 63.206 h -11.178 v -49.752 l -11.829,49.752 h -11.586 l -11.789,-49.752 v 49.752 h -11.178 z m -6.221,0 h -13.089 l -5.203,-14.355 h -23.819 l -4.921,14.355 h -12.764 l 23.213,-63.206 h 12.725 l 23.858,63.206 z m -22.154,-25.006 -8.213,-23.455 -8.05,23.455 h 16.263 z m -91.666,25.006 v -63.206 h 12.033 v 24.878 h 23.576 v -24.878 h 12.034 v 63.206 h -12.034 v -27.638 h -23.576 v 27.638 h -12.033 z m -22.035,-23.239 11.668,3.924 c -1.788,6.898 -4.763,12.021 -8.924,15.369 -4.159,3.349 -9.438,5.022 -15.833,5.022 -7.914,0 -14.417,-2.864 -19.511,-8.599 -5.097,-5.734 -7.643,-13.573 -7.643,-23.521 0,-10.52 2.562,-18.688 7.683,-24.51 5.121,-5.821 11.857,-8.73 20.203,-8.73 7.292,0 13.212,2.285 17.765,6.854 2.711,2.702 4.743,6.582 6.099,11.64 l -11.912,3.019 c -0.706,-3.273 -2.175,-5.861 -4.409,-7.76 -2.237,-1.898 -4.954,-2.847 -8.151,-2.847 -4.418,0 -8.003,1.683 -10.752,5.044 -2.753,3.365 -4.128,8.814 -4.128,16.341 0,7.992 1.355,13.683 4.066,17.074 2.709,3.393 6.233,5.089 10.57,5.089 3.196,0 5.947,-1.077 8.251,-3.234 2.301,-2.157 3.956,-5.548 4.958,-10.175 z m -121.426,-39.967 h 21.991 c 4.958,0 8.74,0.403 11.341,1.208 3.498,1.094 6.492,3.031 8.985,5.821 2.494,2.786 4.39,6.2 5.69,10.238 1.3,4.038 1.951,9.021 1.951,14.939 0,5.202 -0.608,9.688 -1.828,13.449 -1.492,4.601 -3.619,8.322 -6.382,11.17 -2.087,2.152 -4.906,3.836 -8.456,5.044 -2.656,0.892 -6.207,1.336 -10.651,1.336 h -22.642 v -63.205 z m 12.033,10.694 v 41.86 h 8.983 c 3.359,0 5.785,-0.197 7.276,-0.602 1.951,-0.519 3.57,-1.393 4.857,-2.632 1.288,-1.234 2.338,-3.27 3.15,-6.099 0.813,-2.83 1.22,-6.688 1.22,-11.578 0,-4.886 -0.407,-8.634 -1.22,-11.253 -0.813,-2.614 -1.951,-4.653 -3.414,-6.121 -1.463,-1.467 -3.319,-2.456 -5.569,-2.975 -1.681,-0.399 -4.974,-0.602 -9.878,-0.602 h -5.405 z m -62.523,52.512 v -62.688 h 12.033 v 52.037 h 29.92 v 10.651 h -41.953 z m -60.408,0 v -63.206 h 25.324 c 6.369,0 10.996,0.57 13.882,1.704 2.887,1.134 5.198,3.155 6.932,6.055 1.733,2.904 2.601,6.227 2.601,9.961 0,4.741 -1.313,8.661 -3.943,11.75 -2.627,3.089 -6.558,5.035 -11.789,5.839 2.604,1.613 4.75,3.379 6.444,5.304 1.694,1.929 3.977,5.348 6.85,10.265 l 7.276,12.329 h -14.39 l -8.7,-13.753 c -3.089,-4.917 -5.202,-8.011 -6.34,-9.293 -1.138,-1.279 -2.344,-2.153 -3.618,-2.628 -1.274,-0.475 -3.293,-0.712 -6.057,-0.712 h -2.438 v 26.386 h -12.034 z m 12.033,-36.474 h 8.902 c 5.771,0 9.377,-0.26 10.813,-0.778 1.437,-0.519 2.562,-1.406 3.375,-2.671 0.813,-1.266 1.219,-2.848 1.219,-4.741 0,-2.127 -0.536,-3.845 -1.606,-5.154 -1.072,-1.31 -2.581,-2.136 -4.532,-2.479 -0.976,-0.145 -3.904,-0.215 -8.781,-0.215 h -9.39 v 16.038 z m -79.27,5.259 c 0,-6.437 0.907,-11.841 2.724,-16.209 1.354,-3.221 3.203,-6.107 5.547,-8.669 2.344,-2.558 4.913,-4.455 7.705,-5.69 3.713,-1.665 7.995,-2.5 12.846,-2.5 8.781,0 15.807,2.887 21.078,8.665 5.271,5.778 7.907,13.814 7.907,24.101 0,10.207 -2.617,18.187 -7.845,23.951 -5.231,5.765 -12.224,8.643 -20.977,8.643 -8.862,0 -15.908,-2.864 -21.139,-8.599 -5.231,-5.735 -7.846,-13.63 -7.846,-23.693 z m 12.397,-0.43 c 0,7.158 1.56,12.58 4.675,16.275 3.117,3.695 7.074,5.541 11.87,5.541 4.798,0 8.733,-1.832 11.811,-5.497 3.076,-3.664 4.614,-9.161 4.614,-16.49 0,-7.245 -1.499,-12.65 -4.493,-16.214 -2.995,-3.563 -6.971,-5.347 -11.932,-5.347 -4.959,0 -8.957,1.806 -11.991,5.413 -3.036,3.608 -4.554,9.047 -4.554,16.319 z m -80.081,31.645 -14.228,-63.206 h 12.316 l 8.983,43.416 10.895,-43.416 h 14.311 l 10.447,44.149 9.146,-44.149 h 12.114 l -14.471,63.206 h -12.765 l -11.87,-47.252 -11.831,47.252 h -13.047 z"
       id="path4876"
       style="fill:#8c680e;fill-opacity:1;stroke:#8c680e;stroke-width:16.64142418;stroke-opacity:1" /></g><g
     transform="matrix(0.92439811,0,0,1,82.387175,21.996971)"
     id="g274"
     style="fill:#ffffff;stroke:none;display:inline"><path
       d="m 1086.305,1436.039 11.705,-1.209 c 0.703,4.166 2.136,7.229 4.289,9.184 2.157,1.955 5.062,2.931 8.722,2.931 3.875,0 6.793,-0.87 8.757,-2.609 1.969,-1.736 2.948,-3.771 2.948,-6.1 0,-1.493 -0.413,-2.768 -1.239,-3.813 -0.826,-1.05 -2.271,-1.964 -4.328,-2.737 -1.41,-0.519 -4.622,-1.437 -9.636,-2.76 -6.45,-1.695 -10.976,-3.783 -13.577,-6.252 -3.66,-3.48 -5.487,-7.721 -5.487,-12.721 0,-3.216 0.861,-6.23 2.579,-9.034 1.723,-2.799 4.2,-4.934 7.443,-6.401 3.238,-1.463 7.145,-2.197 11.728,-2.197 7.478,0 13.106,1.74 16.89,5.216 3.779,3.479 5.765,8.12 5.954,13.929 l -12.031,0.558 c -0.518,-3.247 -1.621,-5.584 -3.313,-7.004 -1.696,-1.423 -4.235,-2.135 -7.623,-2.135 -3.498,0 -6.235,0.76 -8.213,2.284 -1.274,0.976 -1.911,2.285 -1.911,3.924 0,1.494 0.598,2.772 1.788,3.836 1.521,1.354 5.207,2.76 11.06,4.228 5.853,1.463 10.181,2.983 12.988,4.547 2.804,1.569 5.001,3.709 6.587,6.424 1.582,2.716 2.377,6.073 2.377,10.066 0,3.621 -0.949,7.013 -2.848,10.177 -1.897,3.164 -4.578,5.51 -8.049,7.048 -3.467,1.538 -7.791,2.307 -12.967,2.307 -7.535,0 -13.322,-1.846 -17.36,-5.541 -4.038,-3.694 -6.451,-9.077 -7.233,-16.146 z m -56.954,20.563 v -63.206 h 11.71 l 24.391,42.207 v -42.207 h 11.178 v 63.206 h -12.074 l -24.021,-41.215 v 41.215 h -11.184 z m -67.318,-31.215 c 0,-6.437 0.909,-11.841 2.724,-16.209 1.358,-3.221 3.208,-6.107 5.55,-8.669 2.347,-2.558 4.912,-4.455 7.702,-5.69 3.713,-1.665 7.997,-2.5 12.848,-2.5 8.779,0 15.806,2.887 21.078,8.665 5.272,5.778 7.904,13.814 7.904,24.101 0,10.207 -2.614,18.187 -7.843,23.951 -5.233,5.765 -12.224,8.643 -20.977,8.643 -8.862,0 -15.91,-2.864 -21.14,-8.599 -5.228,-5.735 -7.846,-13.63 -7.846,-23.693 z m 12.399,-0.43 c 0,7.158 1.56,12.58 4.675,16.275 3.115,3.695 7.074,5.541 11.872,5.541 4.794,0 8.731,-1.832 11.807,-5.497 3.076,-3.664 4.613,-9.161 4.613,-16.49 0,-7.245 -1.493,-12.65 -4.49,-16.214 -2.996,-3.563 -6.973,-5.347 -11.93,-5.347 -4.96,0 -8.959,1.806 -11.995,5.413 -3.031,3.608 -4.552,9.047 -4.552,16.319 z m -33.455,31.645 v -63.206 h 12.034 v 63.206 h -12.034 z m -55.161,0 v -63.206 h 19.307 c 7.315,0 12.088,0.315 14.311,0.948 3.414,0.949 6.274,3.01 8.577,6.187 2.303,3.178 3.454,7.281 3.454,12.313 0,3.88 -0.664,7.14 -1.991,9.785 -1.326,2.645 -3.014,4.719 -5.062,6.23 -2.048,1.507 -4.126,2.509 -6.239,2.996 -2.874,0.603 -7.034,0.905 -12.479,0.905 h -7.848 v 23.842 h -12.03 z m 12.03,-52.512 v 17.936 h 6.587 c 4.74,0 7.913,-0.334 9.513,-0.993 1.599,-0.658 2.852,-1.695 3.761,-3.106 0.905,-1.405 1.357,-3.045 1.357,-4.912 0,-2.298 -0.637,-4.196 -1.906,-5.69 -1.274,-1.493 -2.887,-2.43 -4.838,-2.803 -1.437,-0.286 -4.323,-0.431 -8.66,-0.431 h -5.814 z m -81.547,52.512 v -63.206 h 18.007 l 10.813,43.112 10.69,-43.112 h 18.05 v 63.206 h -11.178 v -49.752 l -11.829,49.752 h -11.586 l -11.789,-49.752 v 49.752 h -11.178 z m -6.221,0 h -13.089 l -5.203,-14.355 h -23.819 l -4.921,14.355 h -12.764 l 23.213,-63.206 h 12.725 l 23.858,63.206 z m -22.154,-25.006 -8.213,-23.455 -8.05,23.455 h 16.263 z m -91.666,25.006 v -63.206 h 12.033 v 24.878 h 23.576 v -24.878 h 12.034 v 63.206 h -12.034 v -27.638 h -23.576 v 27.638 h -12.033 z m -22.035,-23.239 11.668,3.924 c -1.788,6.898 -4.763,12.021 -8.924,15.369 -4.159,3.349 -9.438,5.022 -15.833,5.022 -7.914,0 -14.417,-2.864 -19.511,-8.599 -5.097,-5.734 -7.643,-13.573 -7.643,-23.521 0,-10.52 2.562,-18.688 7.683,-24.51 5.121,-5.821 11.857,-8.73 20.203,-8.73 7.292,0 13.212,2.285 17.765,6.854 2.711,2.702 4.743,6.582 6.099,11.64 l -11.912,3.019 c -0.706,-3.273 -2.175,-5.861 -4.409,-7.76 -2.237,-1.898 -4.954,-2.847 -8.151,-2.847 -4.418,0 -8.003,1.683 -10.752,5.044 -2.753,3.365 -4.128,8.814 -4.128,16.341 0,7.992 1.355,13.683 4.066,17.074 2.709,3.393 6.233,5.089 10.57,5.089 3.196,0 5.947,-1.077 8.251,-3.234 2.301,-2.157 3.956,-5.548 4.958,-10.175 z m -121.426,-39.967 h 21.991 c 4.958,0 8.74,0.403 11.341,1.208 3.498,1.094 6.492,3.031 8.985,5.821 2.494,2.786 4.39,6.2 5.69,10.238 1.3,4.038 1.951,9.021 1.951,14.939 0,5.202 -0.608,9.688 -1.828,13.449 -1.492,4.601 -3.619,8.322 -6.382,11.17 -2.087,2.152 -4.906,3.836 -8.456,5.044 -2.656,0.892 -6.207,1.336 -10.651,1.336 h -22.642 v -63.205 z m 12.033,10.694 v 41.86 h 8.983 c 3.359,0 5.785,-0.197 7.276,-0.602 1.951,-0.519 3.57,-1.393 4.857,-2.632 1.288,-1.234 2.338,-3.27 3.15,-6.099 0.813,-2.83 1.22,-6.688 1.22,-11.578 0,-4.886 -0.407,-8.634 -1.22,-11.253 -0.813,-2.614 -1.951,-4.653 -3.414,-6.121 -1.463,-1.467 -3.319,-2.456 -5.569,-2.975 -1.681,-0.399 -4.974,-0.602 -9.878,-0.602 h -5.405 z m -62.523,52.512 v -62.688 h 12.033 v 52.037 h 29.92 v 10.651 h -41.953 z m -60.408,0 v -63.206 h 25.324 c 6.369,0 10.996,0.57 13.882,1.704 2.887,1.134 5.198,3.155 6.932,6.055 1.733,2.904 2.601,6.227 2.601,9.961 0,4.741 -1.313,8.661 -3.943,11.75 -2.627,3.089 -6.558,5.035 -11.789,5.839 2.604,1.613 4.75,3.379 6.444,5.304 1.694,1.929 3.977,5.348 6.85,10.265 l 7.276,12.329 h -14.39 l -8.7,-13.753 c -3.089,-4.917 -5.202,-8.011 -6.34,-9.293 -1.138,-1.279 -2.344,-2.153 -3.618,-2.628 -1.274,-0.475 -3.293,-0.712 -6.057,-0.712 h -2.438 v 26.386 h -12.034 z m 12.033,-36.474 h 8.902 c 5.771,0 9.377,-0.26 10.813,-0.778 1.437,-0.519 2.562,-1.406 3.375,-2.671 0.813,-1.266 1.219,-2.848 1.219,-4.741 0,-2.127 -0.536,-3.845 -1.606,-5.154 -1.072,-1.31 -2.581,-2.136 -4.532,-2.479 -0.976,-0.145 -3.904,-0.215 -8.781,-0.215 h -9.39 v 16.038 z m -79.27,5.259 c 0,-6.437 0.907,-11.841 2.724,-16.209 1.354,-3.221 3.203,-6.107 5.547,-8.669 2.344,-2.558 4.913,-4.455 7.705,-5.69 3.713,-1.665 7.995,-2.5 12.846,-2.5 8.781,0 15.807,2.887 21.078,8.665 5.271,5.778 7.907,13.814 7.907,24.101 0,10.207 -2.617,18.187 -7.845,23.951 -5.231,5.765 -12.224,8.643 -20.977,8.643 -8.862,0 -15.908,-2.864 -21.139,-8.599 -5.231,-5.735 -7.846,-13.63 -7.846,-23.693 z m 12.397,-0.43 c 0,7.158 1.56,12.58 4.675,16.275 3.117,3.695 7.074,5.541 11.87,5.541 4.798,0 8.733,-1.832 11.811,-5.497 3.076,-3.664 4.614,-9.161 4.614,-16.49 0,-7.245 -1.499,-12.65 -4.493,-16.214 -2.995,-3.563 -6.971,-5.347 -11.932,-5.347 -4.959,0 -8.957,1.806 -11.991,5.413 -3.036,3.608 -4.554,9.047 -4.554,16.319 z m -80.081,31.645 -14.228,-63.206 h 12.316 l 8.983,43.416 10.895,-43.416 h 14.311 l 10.447,44.149 9.146,-44.149 h 12.114 l -14.471,63.206 h -12.765 l -11.87,-47.252 -11.831,47.252 h -13.047 z"
       id="path302"
       style="fill:#ffffff;stroke:none" /></g><path
     d="m 996.9688,1212.375 c -20.5717,-0.423 -34.5219,25.6981 -23.375,42.9688 8.3369,14.5558 30.4929,18.8008 42.5624,6.75 12.8611,-11.4416 12.3772,-34.9318 -2.375,-44.4376 -4.8438,-3.4869 -10.7779,-5.5561 -16.8124,-5.2812 z"
     id="path4022"
     style="fill:#8c680e;fill-opacity:1;stroke:#8c680e;stroke-width:4;stroke-miterlimit:4;stroke-opacity:1;display:inline" /><g
     transform="matrix(0.91244418,0,0,1,42.49225,-26)"
     id="g3790"
     style="fill:#ffffff;stroke:#8c680e;stroke-width:10.46879864;stroke-opacity:1;display:inline"><path
       d="m 615.65574,1265.2483 -71.91105,0 0,32.4751 62.28779,0.138 -17.79142,45.8064 -43.49849,-0.026 -0.99788,65.4458 -58.42857,0 0,-180.9535 138.1353,1.091 7.59978,0 z"
       id="polygon266-2"
       style="fill:#ffffff;fill-rule:evenodd;stroke:#8c680e;stroke-width:10.46879864;stroke-opacity:1" /><path
       d="m 703.63908,1409.1134 -57.4671,-0.074 -0.89578,-180.0955 0,0 59.144,0.2115 z"
       id="polygon268-0"
       style="fill:#ffffff;fill-rule:evenodd;stroke:#8c680e;stroke-width:10.46879864;stroke-opacity:1" /><path
       d="m 979.71377,1229.1632 67.41583,179.9203 -58.42858,0.082 -8.98725,-22.4999 -55.89966,-0.6307 -11.52016,23.1306 -58.4287,0 67.41996,-180.0041 58.42856,0 z m -49.44132,121.5024 40.45006,0 -22.47155,-67.5042 z"
       id="path272-1"
       style="fill:#ffffff;fill-rule:evenodd;stroke:#8c680e;stroke-width:10.46879864;stroke-opacity:1" /><path
       d="m 864.91562,1266.0426 -71.91105,0 0,32.3047 62.28779,0.1369 -17.79142,45.5665 -43.49849,-0.024 -0.99788,65.1029 -58.42857,0 0,-180.0052 137.50304,-0.1792 7.59978,0.3161 z"
       id="polygon266-2-0"
       style="fill:#ffffff;fill-rule:evenodd;stroke:#8c680e;stroke-width:10.46879864;stroke-opacity:1" /></g><path
     d="m 982.6541,1258.6097 0,-37.7595 17.8086,0 c 3.5801,0 6.3016,0.3394 8.1647,1.0175 1.8631,0.6784 3.3516,1.876 4.4658,3.593 1.1143,1.7172 1.6714,3.6147 1.6714,5.6923 0,2.6787 -0.9225,4.9368 -2.7672,6.774 -1.8448,1.8373 -4.6942,3.0051 -8.5483,3.503 1.4065,0.6353 2.475,1.2621 3.2056,1.8802 1.5525,1.3395 3.0229,3.0136 4.4112,5.0227 l 6.9864,10.2768 -6.6851,0 -5.3152,-7.8559 c -1.5527,-2.2665 -2.8312,-4.0007 -3.8358,-5.2027 -1.0046,-1.202 -1.9041,-2.0435 -2.6986,-2.5241 -0.7946,-0.4809 -1.6028,-0.8157 -2.4247,-1.0047 -0.6029,-0.1202 -1.5892,-0.1801 -2.9591,-0.1801 l -6.1645,0 0,16.7675 z m 5.3152,-21.0947 11.4249,0 c 2.4293,0 4.3289,-0.2361 5.6989,-0.7083 1.3699,-0.4723 2.411,-1.2278 3.1233,-2.2666 0.7124,-1.0388 1.0685,-2.1679 1.0685,-3.3871 0,-1.7859 -0.6895,-3.254 -2.0686,-4.4044 -1.379,-1.1504 -3.5572,-1.7257 -6.5344,-1.7257 l -12.7126,0 z"
     id="path4131-2"
     style="fill:#ffffff;fill-opacity:1;stroke:none;display:inline" /><path
     d="m 996,1208.4062 c -18.9204,0.4623 -33.7272,20.1634 -29.5938,38.5313 2.8546,18.1307 23.1445,30.8816 40.6876,24.75 17.9659,-5.1624 27.6201,-27.4387 19.5624,-44.3125 -5.1908,-11.8201 -17.6517,-19.7957 -30.6562,-18.9688 z"
     id="path3349-6"
     style="fill:none;stroke:#ffffff;stroke-width:8;stroke-miterlimit:4;stroke-opacity:1;display:inline" /><path
     d="m 996.8438,1202.375 c -26.6467,-0.7324 -46.1216,32.3589 -33.25,55.5 9.9536,22.3561 44.2852,28.9755 60.8437,10.25 16.8284,-16.6652 13.9556,-49.2147 -7.6993,-60.4866 -5.9547,-3.6016 -12.8997,-5.4895 -19.8944,-5.2634 z"
     id="path3998"
     style="fill:none;stroke:#8c680e;stroke-width:10;stroke-miterlimit:4;stroke-opacity:1;display:inline" /></g></svg>